<svg width="51" height="51" viewBox="0 0 51 51" fill="none" xmlns="http://www.w3.org/2000/svg">
<path d="M34.4923 31.9544C35.7871 30.1471 36.4834 27.9796 36.4834 25.7562C36.4834 23.5329 35.7871 21.3654 34.4923 19.558L38.269 15.7812L40.578 18.0902C40.9128 18.4249 41.367 18.613 41.8405 18.613C42.314 18.613 42.7681 18.4249 43.103 18.0902L50.2458 10.9473C50.5806 10.6124 50.7687 10.1583 50.7687 9.6848C50.7687 9.21129 50.5806 8.75717 50.2458 8.4223L43.103 1.27944C42.7681 0.94467 42.314 0.756607 41.8405 0.756607C41.367 0.756607 40.9128 0.94467 40.578 1.27944L33.4351 8.4223C33.1003 8.75717 32.9123 9.21129 32.9123 9.6848C32.9123 10.1583 33.1003 10.6124 33.4351 10.9473L35.744 13.2562L31.9673 17.033C30.1599 15.7382 27.9924 15.0419 25.769 15.0419C23.5457 15.0419 21.3782 15.7382 19.5708 17.033L15.0548 12.5152V0.756226H0.769043V15.0419H12.5298L17.0458 19.558C15.751 21.3654 15.0547 23.5329 15.0547 25.7562C15.0547 27.9796 15.751 30.1471 17.0458 31.9544L13.269 35.7312L10.9601 33.4223C10.6252 33.0875 10.1711 32.8995 9.69761 32.8995C9.22411 32.8995 8.76999 33.0875 8.43511 33.4223L1.29226 40.5652C0.957487 40.9 0.769424 41.3541 0.769424 41.8277C0.769424 42.3012 0.957487 42.7553 1.29226 43.0902L8.43511 50.233C8.76999 50.5678 9.22411 50.7558 9.69761 50.7558C10.1711 50.7558 10.6252 50.5678 10.9601 50.233L18.103 43.0902C18.4377 42.7553 18.6258 42.3012 18.6258 41.8277C18.6258 41.3541 18.4377 40.9 18.103 40.5652L15.794 38.2562L19.5708 34.4794C21.3782 35.7743 23.5457 36.4706 25.769 36.4706C27.9924 36.4706 30.1599 35.7743 31.9673 34.4794L36.4833 38.9973V50.7562H50.769V36.4705H39.0083L34.4923 31.9544ZM41.8405 5.06694L46.4583 9.6848L41.8405 14.3027L37.2226 9.6848L41.8405 5.06694ZM9.69761 46.4455L5.07976 41.8277L9.69761 37.2098L14.3155 41.8277L9.69761 46.4455ZM11.4833 11.4705H4.34047V4.32765H11.4833V11.4705ZM18.6262 25.7562C18.6262 24.3435 19.0451 22.9625 19.83 21.7879C20.6148 20.6132 21.7304 19.6977 23.0356 19.1571C24.3408 18.6165 25.777 18.475 27.1625 18.7506C28.5481 19.0262 29.8209 19.7065 30.8198 20.7055C31.8187 21.7044 32.499 22.9771 32.7747 24.3627C33.0503 25.7483 32.9088 27.1845 32.3682 28.4897C31.8276 29.7949 30.912 30.9104 29.7374 31.6953C28.5628 32.4802 27.1818 32.8991 25.769 32.8991C23.8754 32.8967 22.0599 32.1434 20.7209 30.8044C19.3819 29.4653 18.6285 27.6499 18.6262 25.7562ZM40.0548 40.0419H47.1976V47.1848H40.0548V40.0419Z" fill="#777777"/>
</svg>
