<svg width="52" height="52" viewBox="0 0 52 52" fill="none" xmlns="http://www.w3.org/2000/svg">
<path d="M41.9208 39.335V39.3354C41.9187 40.188 41.5783 41.0048 40.9745 41.6067L41.9208 39.335ZM41.9208 39.335V23.1549L44.4808 20.5949C51.5623 13.5134 51.3857 6.29292 50.9684 3.50246L50.9683 3.50163C50.8618 2.816 50.54 2.18202 50.0494 1.69141C49.5587 1.20079 48.9248 0.878965 48.2391 0.772497V0.772495L48.2383 0.77237C45.4478 0.355105 38.2274 0.178503 31.1459 7.26L28.5859 9.81999L12.4057 9.81999L12.4054 9.81999C11.5527 9.82208 10.7357 10.1625 10.1339 10.7665L1.78098 19.1193C1.36402 19.5354 1.06823 20.0572 0.925367 20.6287C0.782499 21.2002 0.797942 21.7997 0.97004 22.3631L0.97013 22.3634C1.14291 22.9249 1.46609 23.4284 1.90465 23.8193C2.34292 24.2099 2.8797 24.4732 3.45686 24.5806C3.45723 24.5807 3.45761 24.5808 3.45798 24.5808L13.9044 26.6855L25.0552 37.8363L27.1602 48.3099C27.1602 48.31 27.1602 48.3101 27.1602 48.3102C27.2721 48.8828 27.5374 49.4142 27.9279 49.8475C28.3185 50.281 28.8196 50.6001 29.3776 50.7707L29.3776 50.7708L29.3827 50.7722C29.6888 50.8541 30.0037 50.8991 30.3205 50.9062L30.3229 50.9062M41.9208 39.335L30.3229 50.9062M30.3229 50.9062C30.7497 50.9087 31.1727 50.8263 31.5673 50.6638C31.9618 50.5014 32.3201 50.2621 32.6213 49.9599L30.3229 50.9062ZM39.5583 25.5174L27.4187 37.6569L29.4648 47.8359C29.5029 47.9888 29.5802 48.1293 29.6892 48.2433C29.7988 48.358 29.9367 48.442 30.089 48.4867C30.2412 48.5315 30.4026 48.5356 30.5569 48.4985C30.7106 48.4615 30.8519 48.3851 30.9669 48.2767C30.9674 48.2763 30.9679 48.2758 30.9684 48.2753L39.2928 39.9508L39.295 39.9486L39.295 39.9487C39.3779 39.8692 39.4439 39.7738 39.4891 39.6683C39.5342 39.563 39.5578 39.4496 39.5583 39.335C39.5583 39.3348 39.5583 39.3346 39.5583 39.3345M39.5583 25.5174L39.5583 39.3345M39.5583 25.5174L39.5583 39.3345M39.5583 25.5174L39.5583 39.3345M18.5292 40.5429L18.5293 40.5429L18.5302 40.5398C18.623 40.2422 18.5943 39.9199 18.4505 39.6433C18.307 39.3673 18.0604 39.1591 17.7643 39.0638C17.619 39.0135 17.4652 38.9926 17.3117 39.0024C17.1577 39.0123 17.0071 39.053 16.869 39.1221C16.7309 39.1911 16.6081 39.2871 16.5077 39.4045C16.4076 39.5215 16.3319 39.6574 16.2851 39.8041C15.2323 42.9613 12.8542 44.8623 10.3705 46.0116C7.98818 47.114 5.52028 47.5188 4.06603 47.6747C4.22195 46.2205 4.6268 43.7526 5.72915 41.3703C6.87844 38.8865 8.77943 36.5084 11.9367 35.4557C12.0834 35.4089 12.2193 35.3331 12.3363 35.233C12.4536 35.1327 12.5496 35.0098 12.6187 34.8717C12.6877 34.7336 12.7284 34.5831 12.7383 34.429C12.7482 34.2756 12.7273 34.1218 12.6769 33.9765C12.5817 33.6804 12.3734 33.4338 12.0974 33.2902C11.8208 33.1464 11.4986 33.1178 11.201 33.2105L11.2009 33.2105L11.1979 33.2115C7.22605 34.5442 4.33471 37.7051 2.77597 42.3553L2.77582 42.3558C2.07283 44.4761 1.68799 46.6889 1.63386 48.9221H1.63381V48.9257C1.63381 49.239 1.75827 49.5394 1.97979 49.761C2.20132 49.9825 2.50178 50.1069 2.81507 50.107L2.8187 50.1069C5.05186 50.0528 7.26466 49.6679 9.38497 48.9649L9.38544 48.9648C14.0357 47.406 17.1966 44.5147 18.5292 40.5429ZM32.6215 49.9597L40.9743 41.6069L32.6215 49.9597ZM11.7899 12.4479L11.79 12.448L11.7921 12.4457C11.8716 12.3629 11.9669 12.2969 12.0724 12.2517C12.1779 12.2065 12.2913 12.183 12.406 12.1825C12.4061 12.1825 12.4062 12.1825 12.4063 12.1825L26.2234 12.1825L14.0839 24.322L3.9049 22.276C3.75192 22.2379 3.61149 22.1605 3.49749 22.0516C3.38275 21.9419 3.2988 21.8041 3.25401 21.6518C3.20923 21.4995 3.20518 21.3382 3.24228 21.1839C3.27922 21.0302 3.35568 20.8888 3.46405 20.7738L11.7899 12.4479ZM48.6087 3.8526L48.6086 3.85261L48.6094 3.85741C48.9907 6.2726 49.1504 12.5877 42.8249 18.9132L39.8858 21.8523L26.1472 35.5908L16.1499 25.5935L29.8885 11.855L32.8276 8.9159C39.1531 2.59037 45.4682 2.75005 47.8833 3.1314L47.8833 3.13147L47.8882 3.13208C48.0713 3.15494 48.2416 3.2382 48.3721 3.3687C48.5026 3.49919 48.5858 3.66947 48.6087 3.8526Z" fill="#777777" stroke="#777777" stroke-width="0.3"/>
</svg>
